<svg width="31" height="31" viewBox="0 0 31 31" fill="none" xmlns="http://www.w3.org/2000/svg">
<g clip-path="url(#clip0_2_14)">
<path d="M19.875 18H18.8875L18.5375 17.6625C19.7625 16.2375 20.5 14.3875 20.5 12.375C20.5 7.8875 16.8625 4.25 12.375 4.25C7.8875 4.25 4.25 7.8875 4.25 12.375C4.25 16.8625 7.8875 20.5 12.375 20.5C14.3875 20.5 16.2375 19.7625 17.6625 18.5375L18 18.8875V19.875L24.25 26.1125L26.1125 24.25L19.875 18ZM12.375 18C9.2625 18 6.75 15.4875 6.75 12.375C6.75 9.2625 9.2625 6.75 12.375 6.75C15.4875 6.75 18 9.2625 18 12.375C18 15.4875 15.4875 18 12.375 18Z" fill="#979797"/>
</g>
<defs>
<clipPath id="clip0_2_14">
<rect width="30" height="30" fill="white" transform="translate(0.5 0.5)"/>
</clipPath>
</defs>
</svg>
